<?xml version="1.0" encoding="UTF-8" standalone="no"?>
<svg width="46px" height="46px" viewBox="0 0 46 46" version="1.1" xmlns="http://www.w3.org/2000/svg" xmlns:xlink="http://www.w3.org/1999/xlink" xmlns:sketch="http://www.bohemiancoding.com/sketch/ns">
    <!-- Generator: Sketch 3.2.2 (9983) - http://www.bohemiancoding.com/sketch -->
    <title>Close btn</title>
    <desc>Created with Sketch.</desc>
    <defs></defs>
    <g id="Welcome" stroke="none" stroke-width="1" fill="none" fill-rule="evenodd" sketch:type="MSPage">
        <g id="Desktop-HD-Sign-up-Step1" sketch:type="MSArtboardGroup" transform="translate(-1367.000000, -34.000000)" fill="#FFFFFF">
            <g id="Close-btn" sketch:type="MSLayerGroup" transform="translate(1367.000000, 33.000000)">
                <path d="M23.5559087,26.178582 L18.233343,31.4840184 C17.7478307,31.9679682 16.9463277,31.9689272 16.4525692,31.4767577 C15.9553682,30.9811569 15.9577902,30.1876408 16.45029,29.696726 L21.7678508,24.3962784 L16.445285,19.090842 C15.9597728,18.6068922 15.9588106,17.8079687 16.4525692,17.3157992 C16.9497701,16.8201983 17.7458481,16.8226125 18.238348,17.3135274 L23.5559087,22.6139749 L28.9223617,17.2647925 C29.4179574,16.7707918 30.214382,16.7748948 30.7081405,17.2670643 C31.2053415,17.7626651 31.2022114,18.556887 30.7088381,19.0486725 L29.4058398,20.3474775 L25.3439667,24.3962784 L30.7104197,29.7454608 C31.2060153,30.2394615 31.2018991,31.033323 30.7081405,31.5254926 C30.2109396,32.0210934 29.4141535,32.0179734 28.9207802,31.5261879 L27.6177818,30.227383 L23.5559087,26.178582 L23.5559087,26.178582 Z" id="Rectangle-348" sketch:type="MSShapeGroup"></path>
                <path d="M46,24 C46,11.2974508 35.7025492,1 23,1 C10.2974508,1 0,11.2974508 0,24 C0,36.7025492 10.2974508,47 23,47 C35.7025492,47 46,36.7025492 46,24 Z M2.875,24 C2.875,12.8852694 11.8852694,3.875 23,3.875 C34.1147306,3.875 43.125,12.8852694 43.125,24 C43.125,35.1147306 34.1147306,44.125 23,44.125 C11.8852694,44.125 2.875,35.1147306 2.875,24 Z" id="Oval-1" sketch:type="MSShapeGroup"></path>
            </g>
        </g>
    </g>
</svg>