<?xml version="1.0" encoding="UTF-8" standalone="no"?>
<svg width="18px" height="22px" viewBox="0 0 18 22" version="1.1" xmlns="http://www.w3.org/2000/svg" xmlns:xlink="http://www.w3.org/1999/xlink" xmlns:sketch="http://www.bohemiancoding.com/sketch/ns">
    <!-- Generator: Sketch 3.2.2 (9983) - http://www.bohemiancoding.com/sketch -->
    <title>Path</title>
    <desc>Created with Sketch.</desc>
    <defs></defs>
    <g id="Welcome" stroke="none" stroke-width="1" fill="none" fill-rule="evenodd" sketch:type="MSPage">
        <g id="Desktop-HD-Sign-up-Step1" sketch:type="MSArtboardGroup" transform="translate(-910.000000, -295.000000)" fill="#FFFFFF">
            <g id="GitHub-btn" sketch:type="MSLayerGroup" transform="translate(887.000000, 284.000000)">
                <path d="M24.4154138,21.9583013 C25.3287804,23.5858054 27.0902731,24.5983789 30.0612238,24.8784524 C29.6371607,25.1942276 29.1277832,25.7937696 29.0575242,26.4868746 C28.5243088,26.825425 27.4522323,26.9368388 26.6185343,26.678925 C25.450479,26.3169838 25.0032054,24.047465 23.2542589,24.3706268 C22.8753623,24.4407991 22.9506398,24.6857864 23.2780968,24.893841 C23.8113122,25.2323914 24.3131619,25.6558872 24.7002136,26.5576624 C24.9975596,27.2501518 25.6223625,28.4873997 27.598396,28.4873997 C28.3825363,28.4873997 28.9320618,28.3950677 28.9320618,28.3950677 C28.9320618,28.3950677 28.9471173,30.1623008 28.9471173,30.8492504 C28.9471173,31.6414583 27.857476,31.8649016 27.857476,32.2459246 C27.857476,32.3967335 28.2181805,32.410891 28.5079987,32.410891 C29.0807348,32.410891 30.272628,31.9418448 30.272628,31.118244 C30.272628,30.4639184 30.2832923,28.2639564 30.2832923,27.87924 C30.2832923,27.0377884 30.7431121,26.7712569 30.7431121,26.7712569 C30.7431121,26.7712569 30.8001976,31.2628974 30.6333325,31.8649016 C30.4376111,32.5727797 30.0844343,32.4724456 30.0844343,32.7882208 C30.0844343,33.2578826 31.5190974,32.903328 31.9946,31.8722881 C32.362205,31.0696159 32.2016131,26.6635363 32.2016131,26.6635363 L32.5936832,26.6555342 C32.5936832,26.6555342 32.6156391,28.6726791 32.6024656,29.5947672 C32.5886647,30.5494794 32.5227969,31.757181 33.1005515,32.3265612 C33.4800753,32.7008133 34.7108619,33.357601 34.7108619,32.7574435 C34.7108619,32.4084288 34.0365013,32.1215843 34.0365013,31.1773365 L34.0365013,26.8328115 C34.5747352,26.8328115 34.4938119,28.2614942 34.4938119,28.2614942 L34.5333326,30.9157293 C34.5333326,30.9157293 34.4147705,31.8827524 35.599136,32.2877818 C36.0169259,32.431204 36.9114732,32.4699834 36.9535031,32.2293049 C36.995533,31.9880108 35.876408,31.6291474 35.866371,30.8800277 C35.8600979,30.4232924 35.8870723,30.1567609 35.8870723,28.1716245 C35.8870723,26.186488 35.6154461,25.452757 34.668832,24.8679881 C37.590225,24.5731415 39.3981388,23.8639707 40.2795125,21.9644568 C40.3483334,21.9666743 40.6383023,21.077148 40.6006963,21.0774547 C40.7982997,20.3603434 40.9049427,19.5121208 40.9262713,18.5075494 C40.9212528,15.7837576 39.5926056,14.8204278 39.3372895,14.3680013 C39.7136768,12.3059216 39.2745583,11.3672137 39.0706818,11.045283 C38.3179072,10.7824448 36.4516533,11.7211528 35.432271,12.3828649 C33.7698936,11.9058166 30.2569452,11.9519826 28.9395895,12.5059741 C26.5087547,10.7978335 25.2227647,11.0594406 25.2227647,11.0594406 C25.2227647,11.0594406 24.391576,12.5213628 25.0032054,14.6603858 C24.2033823,15.6606483 23.6074357,16.3685264 23.6074357,18.2447112 C23.6074357,19.301604 23.7341528,20.2476985 24.0202071,21.0737614 C23.9851405,21.0736766 24.4038521,21.9585738 24.4154138,21.9583013 Z" id="Path" sketch:type="MSShapeGroup"></path>
            </g>
        </g>
    </g>
</svg>