<?xml version="1.0" encoding="UTF-8" standalone="no"?>
<svg width="159px" height="41px" viewBox="0 0 159 41" version="1.1" xmlns="http://www.w3.org/2000/svg" xmlns:xlink="http://www.w3.org/1999/xlink" xmlns:sketch="http://www.bohemiancoding.com/sketch/ns">
    <!-- Generator: Sketch 3.2.2 (9983) - http://www.bohemiancoding.com/sketch -->
    <title>Nuwe logo</title>
    <desc>Created with Sketch.</desc>
    <defs>
        <linearGradient x1="-8.61273987e-05%" y1="49.9998626%" x2="99.9999471%" y2="49.9998626%" id="linearGradient-1">
            <stop stop-color="#00986C" offset="0%"></stop>
            <stop stop-color="#5CA6DC" offset="33%"></stop>
            <stop stop-color="#A4519A" offset="67%"></stop>
            <stop stop-color="#EF7D00" offset="100%"></stop>
        </linearGradient>
    </defs>
    <g id="Welcome" stroke="none" stroke-width="1" fill="none" fill-rule="evenodd" sketch:type="MSPage">
        <g id="Desktop-HD" sketch:type="MSArtboardGroup" transform="translate(-40.000000, -30.000000)" fill="url(#linearGradient-1)">
            <g id="Nuwe-logo" sketch:type="MSLayerGroup" transform="translate(40.000000, 30.000000)">
                <path d="M157.888963,11.8164247 C157.160984,9.53306164 156.094815,7.52181507 154.691016,5.79026712 C153.286095,4.05619178 151.542704,2.68746575 149.461683,1.68184247 C147.37982,0.678746575 144.985286,0.175794521 142.276397,0.175794521 C139.315968,0.175794521 136.746169,0.739965753 134.563635,1.87055479 C132.381661,3.00114384 130.563116,4.5074726 129.108561,6.39094521 C127.653444,8.27469863 126.562317,10.4600548 125.836021,12.9472945 C125.108042,15.4342534 124.744894,18.0343836 124.744894,20.7468425 C124.744894,23.5601164 125.094862,26.1846781 125.798164,28.6205274 C126.500344,31.0560959 127.566233,33.1678767 128.996111,34.9485685 C130.425709,36.7340342 132.204995,38.1395479 134.337894,39.1696027 C136.469672,40.1971301 138.965439,40.7124384 141.824915,40.7124384 C146.489196,40.7124384 150.238735,39.5079932 153.072974,37.097137 C155.906651,34.686 157.749873,31.2200959 158.603201,26.6974589 L155.744847,26.6974589 C154.888714,30.3150068 153.329561,33.140637 151.066265,35.1743493 C148.803249,37.2100274 145.734857,38.227726 141.862212,38.227726 C139.497683,38.227726 137.42255,37.7741986 135.638778,36.871637 C133.852201,35.9662671 132.368481,34.7351438 131.187619,33.1777055 C130.004513,31.6227945 129.112487,29.814863 128.509296,27.7544726 C127.905265,25.6940822 127.60437,23.5334384 127.60437,21.274226 L127.60437,20.8206986 L158.904376,20.8206986 C158.904376,20.6218767 158.916434,20.3570616 158.942233,20.0310274 C158.966349,19.7047123 158.98009,19.4154658 158.98009,19.162726 C158.98009,16.5524863 158.615259,14.1023151 157.888963,11.8164247 L157.888963,11.8164247 Z M127.678963,18.3357055 C127.82955,16.3269863 128.23336,14.3671301 128.886746,12.4564178 C129.540132,10.5482329 130.470577,8.87762329 131.677238,7.4479589 C132.883899,6.0154863 134.367058,4.86046575 136.128958,3.97980822 C137.888614,3.10167808 139.926169,2.66275342 142.240222,2.66275342 C144.402005,2.66275342 146.325429,3.08960274 148.010772,3.94330137 C149.695556,4.79924658 151.128799,5.93966438 152.311344,7.37213699 C153.493328,8.80208219 154.385074,10.4603356 154.989667,12.3438082 C155.592577,14.2275616 155.944228,16.2242055 156.045741,18.3359863 L127.678963,18.3359863 L127.678963,18.3357055 Z M29.4035026,9.49262329 C29.151963,8.33732192 28.738619,7.19437671 28.1623492,6.06378767 C27.5849577,4.93319863 26.7950053,3.91521918 25.7919312,3.01265753 C24.7877354,2.10756849 23.4969471,1.38164384 21.9173228,0.827020548 C20.3508783,0.280260274 17.1963968,0.0047739726 14.9650688,0 C12.7334603,0.00505479452 9.57897884,0.280260274 8.01281481,0.827020548 C6.43319048,1.38164384 5.14240212,2.10756849 4.13820635,3.01265753 C3.13513228,3.91521918 2.34517989,4.93319863 1.76806878,6.06378767 C1.19179894,7.19465753 0.778455026,8.33732192 0.526915344,9.49262329 C0.276216931,10.6479247 0.125910053,11.7664384 0.0748730159,12.8453562 C0.0255185185,13.9248356 0,14.8667123 0,15.6709863 L0,39.6321164 L2.85891534,39.6321164 L2.85891534,15.1438836 C2.85891534,14.1899315 2.93434921,12.9829589 3.08493651,11.5260548 C3.23496296,10.0691507 3.67466667,8.67599315 4.40124339,7.34405479 C5.12922222,6.01464384 6.15977778,4.80402055 7.79352381,4.14577397 C9.46933333,3.47067808 12.4244339,2.94610274 14.9650688,2.9289726 C17.5057037,2.94582192 20.4608042,3.47067808 22.1363333,4.14577397 C23.7700794,4.80402055 24.8006349,6.01464384 25.5286138,7.34405479 C26.2554709,8.67599315 26.6951746,10.0691507 26.8449206,11.5260548 C26.9957884,12.9829589 27.0709418,14.1896507 27.0709418,15.1438836 L27.0709418,39.6323973 L29.9298571,39.6323973 L29.9298571,15.6709863 C29.9298571,14.8667123 29.9040582,13.9248356 29.8552646,12.8453562 C29.8045079,11.7664384 29.6539206,10.6479247 29.4035026,9.49262329 L29.4035026,9.49262329 Z M62.2971534,25.7440685 C62.2971534,26.6980205 62.2217196,27.9047123 62.0711323,29.3618973 C61.9211058,30.8188014 61.4814021,32.2116781 60.754545,33.5438973 C60.0265661,34.8733082 58.9960106,36.0842123 57.3622646,36.7421781 C55.686455,37.417274 52.7313545,37.9418493 50.1907196,37.9586986 C47.6500847,37.9418493 44.6949841,37.417274 43.0191746,36.7421781 C41.3854286,36.0842123 40.3551534,34.873589 39.6268942,33.5438973 C38.900037,32.2119589 38.4606138,30.8188014 38.3105873,29.3618973 C38.16,27.9049932 38.0845661,26.6983014 38.0845661,25.7440685 L38.0845661,1.25583562 L35.2256508,1.25583562 L35.2256508,25.2169658 C35.2256508,26.0212397 35.2514497,26.9631164 35.3005238,28.0425959 C35.3512804,29.1217945 35.5018677,30.2400274 35.7525661,31.3956096 C36.0041058,32.5506301 36.4174497,33.6938562 36.9937196,34.8241644 C37.5711111,35.9550342 38.3607831,36.9727329 39.3638571,37.8755753 C40.3680529,38.7806644 41.6588413,39.506589 43.2384656,40.0606507 C44.8049101,40.6076918 47.9593915,40.8831781 50.1907196,40.8879521 C52.422328,40.8828973 55.5768095,40.6076918 57.1429735,40.0606507 C58.7228783,39.5063082 60.0136667,38.7803836 61.017582,37.8755753 C62.0206561,36.9727329 62.8106085,35.9550342 63.388,34.8241644 C63.9642698,33.6938562 64.3776138,32.5506301 64.6291534,31.3956096 C64.8798519,30.2400274 65.0301587,29.1215137 65.0811958,28.0425959 C65.1302698,26.9631164 65.1560688,26.0215205 65.1560688,25.2169658 L65.1560688,1.25583562 L62.2971534,1.25583562 L62.2971534,25.7440685 L62.2971534,25.7440685 Z M109.299741,36.6700068 L109.149153,36.6700068 L98.5398995,1.25583562 L94.7025873,1.25583562 L84.1690476,36.6700068 L84.0184603,36.6700068 L73.1083122,1.25583562 L70.0233757,1.25583562 L82.2882487,39.9851096 L85.8992593,39.9851096 L96.5842275,4.87226027 L96.734254,4.87226027 L107.343788,39.9848288 L110.879646,39.9848288 L123.294545,1.25583562 L120.134175,1.25583562 L109.299741,36.6700068 L109.299741,36.6700068 Z" id="Shape" sketch:type="MSShapeGroup"></path>
            </g>
        </g>
    </g>
</svg>