<?xml version="1.0" encoding="UTF-8" standalone="no"?>
<svg width="20px" height="16px" viewBox="0 0 20 16" version="1.1" xmlns="http://www.w3.org/2000/svg" xmlns:xlink="http://www.w3.org/1999/xlink" xmlns:sketch="http://www.bohemiancoding.com/sketch/ns">
    <!-- Generator: Sketch 3.2.2 (9983) - http://www.bohemiancoding.com/sketch -->
    <title>Path</title>
    <desc>Created with Sketch.</desc>
    <defs></defs>
    <g id="Welcome" stroke="none" stroke-width="1" fill="none" fill-rule="evenodd" sketch:type="MSPage">
        <g id="Desktop-HD-Sign-up-Step1" sketch:type="MSArtboardGroup" transform="translate(-909.000000, -405.000000)" fill="#FFFFFF">
            <g id="Twitter-btn" sketch:type="MSLayerGroup" transform="translate(887.000000, 390.000000)">
                <path d="M31.4010022,19.2562505 L31.4429709,19.9482956 L30.7434916,19.8635554 C28.1973869,19.5387179 25.9730426,18.4370951 24.0844484,16.5869336 L23.1611357,15.6689146 L22.9233127,16.3468363 C22.4196876,17.8580369 22.7414481,19.4539777 23.7906671,20.5273538 C24.3502505,21.1205353 24.2243443,21.2052756 23.2590628,20.8521913 C22.9233127,20.7392044 22.6295314,20.6544641 22.6015522,20.6968342 C22.5036251,20.7956978 22.8393752,22.0809245 23.1051773,22.5893658 C23.4689066,23.2955343 24.2103547,23.9875794 25.0217507,24.3971571 L25.7072404,24.7219946 L24.8958444,24.736118 C24.1124276,24.736118 24.0844484,24.7502414 24.1683859,25.0468321 C24.4481777,25.9648512 25.553355,26.9393637 26.7844386,27.3630648 L27.651793,27.6596556 L26.8963553,28.1116034 C25.7771884,28.7612784 24.4621672,29.128486 23.1471461,29.1567328 C22.5176147,29.1708561 22,29.2273496 22,29.2697197 C22,29.4109534 23.7067296,30.2018621 24.6999902,30.5125763 C27.6797722,31.4305953 31.2191376,31.0351409 33.877159,29.4674469 C35.7657532,28.3517007 37.6543474,26.1343316 38.5356913,23.9875794 C39.0113373,22.8435865 39.4869832,20.7533277 39.4869832,19.7505685 C39.4869832,19.1008935 39.528952,19.0161532 40.3123688,18.2393679 C40.7740252,17.7874201 41.2077024,17.2931021 41.2916399,17.1518684 C41.4315358,16.8835244 41.4175462,16.8835244 40.7040773,17.1236217 C39.5149624,17.5473228 39.3470874,17.4908293 39.93465,16.8552777 C40.3683272,16.4033298 40.8859419,15.5841744 40.8859419,15.3440771 C40.8859419,15.301707 40.6760981,15.3723238 40.4382751,15.4994342 C40.1864626,15.6406678 39.6268791,15.8525184 39.2071915,15.9796287 L38.4517538,16.219726 L37.7662641,15.7536548 C37.3885452,15.4994342 36.856941,15.2169668 36.5771492,15.1322265 C35.8636803,14.9344994 34.7724926,14.9627461 34.1289716,15.18872 C32.3802732,15.8242717 31.2750959,17.4625826 31.4010022,19.2562505 Z" id="Path" sketch:type="MSShapeGroup"></path>
            </g>
        </g>
    </g>
</svg>